<svg width="140" height="38" viewBox="0 0 1094 231" fill="none" xmlns="http://www.w3.org/2000/svg">
<path d="M0 186.265C0 148.014 41.4699 137.658 73.8435 132.153C101.832 127.488 117.926 121.471 117.926 101.086C117.926 79.3479 108.176 67.686 89.4239 67.686C59.6159 67.686 50.8461 87.1381 41.983 97.9604C30.3211 113.168 8.90973 109.949 5.3645 90.1702C31.603 72.0496 62.5817 62.0261 94.4618 61.3419C130.754 61.3419 156.317 73.9834 156.643 110.602V157.25C155.897 179.122 157.46 201.012 161.308 222.557H120.818C119.132 210.423 118.275 198.188 118.252 185.938C110.136 209.915 90.2635 228.994 54.7645 228.994C27.9887 229.321 0 217.379 0 186.265ZM117.926 158.276V120.958C111.442 130.287 98.4736 132.946 81.3072 136.818C55.0911 143.489 41.983 157.11 41.983 180.434C41.983 203.758 54.6246 216.073 72.724 216.073C100.433 216.073 117.926 191.256 117.926 158.089V158.276Z" fill="#9C9C9C"/>
<path d="M182.393 175.909V74.17H156.177V68.0125H158.229C185.612 68.0125 194.335 35.9655 194.335 0H227.408C227.408 27.5222 222.23 56.3506 191.116 68.0125H286.697V74.17H220.924V181.46C220.924 211.268 226.755 220.644 238.743 220.644C253.298 220.644 264.306 203.804 271.117 156.83H276.621C268.551 214.487 252.318 231 225.309 231C195.314 230.953 182.393 214.58 182.393 175.909Z" fill="#9C9C9C"/>
<path d="M286.511 166.486V133.459C286.862 111.624 285.568 89.7934 282.64 68.1525H325.369V179.454C325.369 205.39 333.486 218.965 351.632 218.965C374.302 218.965 391.142 200.819 402.151 179.128V133.459C402.502 111.624 401.208 89.7934 398.279 68.1525H440.729V223.023H399.259C400.565 208.096 401.172 197.74 401.825 188.69C389.836 209.729 369.451 229.461 337.357 229.461C305.264 229.461 286.511 211.548 286.511 166.486Z" fill="#9C9C9C"/>
<path d="M448.379 145.448C448.379 91.6629 485.977 61.4818 535.19 61.4818C575.681 61.4818 598.678 84.1526 605.815 107.803C596.112 122.077 576.007 118.206 572.789 99.733C570.503 86.7649 564.345 67.6393 537.15 67.6393C504.496 67.6393 490.502 93.902 490.502 141.203C490.502 182.02 506.362 217.612 547.179 217.612C578.619 217.612 598.491 194.941 608.427 161.915H613.605C602.923 197.553 581.838 229.274 533.558 229.274C485.977 229.321 448.379 199.559 448.379 145.448Z" fill="#9C9C9C"/>
<path d="M602.457 186.265C602.457 148.014 643.88 137.658 676.3 132.153C704.289 127.489 720.336 121.471 720.336 101.086C720.336 79.348 710.633 67.686 691.834 67.686C662.026 67.686 653.303 87.1381 644.207 98.147C632.545 113.354 611.18 110.136 607.635 90.3568C633.856 72.2375 664.82 62.2136 696.685 61.5285C732.977 61.5285 758.587 74.17 758.913 110.789V157.436C758.167 179.309 759.731 201.199 763.578 222.743H723.088C721.366 210.613 720.493 198.377 720.476 186.125C712.406 210.102 692.487 229.181 656.988 229.181C630.305 229.321 602.457 217.379 602.457 186.265ZM720.336 158.276V120.958C713.852 130.287 700.93 132.946 683.717 136.818C657.501 143.629 644.533 157.25 644.533 180.574C644.533 203.898 657.175 216.213 675.321 216.213C702.843 216.073 720.336 191.256 720.336 158.089V158.276Z" fill="#9C9C9C"/>
<path d="M885.282 222.883C887.725 201.203 888.8 179.391 888.501 157.576V111.955C888.501 86.0186 880.431 72.1175 861.958 72.1175C839.288 72.1175 822.448 91.8496 811.439 114.101V159.815C811.066 181.018 812.032 202.223 814.331 223.303H769.689C772.247 202.242 773.323 181.027 772.908 159.815V131.827C773.323 110.506 772.248 89.1829 769.689 68.0125H814.378C812.745 81.6337 812.138 92.6426 811.812 102.998C823.474 81.9602 843.859 61.5285 876.233 61.5285C908.606 61.5285 927.079 79.3013 927.079 124.41V157.436C926.809 179.243 927.775 201.046 929.971 222.743L885.282 222.883Z" fill="#9C9C9C"/>
<path d="M932.024 186.265C932.024 148.014 973.494 137.658 1005.87 132.153C1033.86 127.489 1049.95 121.471 1049.95 101.086C1049.95 79.348 1040.2 67.686 1021.45 67.686C991.64 67.686 982.87 87.1381 973.82 98.147C962.158 113.354 940.793 110.136 937.202 90.3568C963.427 72.2449 994.388 62.2218 1026.25 61.5285C1062.54 61.5285 1088.11 74.17 1088.43 110.789V157.436C1087.69 179.309 1089.25 201.199 1093.1 222.743H1052.84C1051.16 210.61 1050.3 198.375 1050.28 186.125C1042.16 210.102 1022.29 229.181 986.788 229.181C959.872 229.321 932.024 217.379 932.024 186.265ZM1049.95 158.276V120.958C1043.47 130.287 1030.5 132.946 1013.33 136.818C987.115 143.629 974.147 157.25 974.147 180.574C974.147 203.898 986.788 216.213 1004.93 216.213C1032.46 216.073 1049.95 191.256 1049.95 158.089V158.276Z" fill="#9C9C9C"/>
</svg>
